<svg xmlns="http://www.w3.org/2000/svg" xmlns:v="https://svgstorm.com"
viewBox = "0 0 512 512"
width="512"
height="512">
<g fill="None" fill-opacity="0.0" stroke="#000000" stroke-opacity="0.00" stroke-width="0.3"><path d="
M 0.00 512.00 
L 67.00 512.00
C 63.79 509.19 58.63 507.32 59.00 502.00
C 56.82 477.90 59.82 453.21 59.00 429.00 C 58.18 404.79 59.00 380.24 59.00 356.00
C 59.00 331.79 58.90 307.18 59.00 283.00 C 59.10 258.82 58.73 234.03 59.00 210.00 C 59.27 185.97 58.37 160.68 59.00 137.00 C 59.63 113.32 57.60 86.90 59.00 64.00 C 60.40 41.10 52.05 15.83 68.00 0.00
L 0.00 0.00
L 0.00 512.00 Z"/>
</g>
<g fill="None" fill-opacity="0.0" stroke="#E8E8DF" stroke-opacity="1.00" stroke-width="0.3"><path d="
M 59.00 356.00 
C 59.05 356.23 59.95 356.65 60.00 357.00
C 77.78 360.95 97.74 355.24 116.00 357.00 C 134.26 358.76 153.53 356.27 172.00 357.00 C 190.47 357.73 209.45 356.80 228.00 357.00 C 246.55 357.20 265.45 357.20 284.00 357.00 C 302.55 356.80 321.53 357.73 340.00 357.00 C 358.47 356.27 377.74 358.76 396.00 357.00 C 414.26 355.24 434.22 360.95 452.00 357.00
C 452.05 356.65 452.95 356.23 453.00 356.00
C 453.00 344.33 453.02 332.67 453.00 321.00 C 452.98 309.33 453.07 297.68 453.00 286.00 C 452.93 274.32 453.15 262.69 453.00 251.00 C 452.85 239.31 453.33 226.61 453.00 215.00 C 452.67 203.39 453.75 191.36 453.00 180.00 C 452.25 168.64 454.67 155.91 453.00 145.00 C 451.33 134.09 457.05 119.61 452.00 110.00
C 451.89 109.79 451.00 110.00 451.00 110.00
C 415.00 110.00 379.00 110.00 343.00 110.00
C 343.00 74.00 343.00 38.00 343.00 2.00
C 343.00 1.50 343.00 1.00 343.00 1.00
C 342.68 0.80 342.17 0.34 342.00 0.00
L 68.00 0.00
C 52.05 15.83 60.40 41.10 59.00 64.00 C 57.60 86.90 59.63 113.32 59.00 137.00 C 58.37 160.68 59.27 185.97 59.00 210.00 C 58.73 234.03 59.10 258.82 59.00 283.00 C 58.90 307.18 59.00 331.79 59.00 356.00
M 166.00 200.00 
C 171.53 208.36 178.40 215.97 178.00 227.00 C 177.60 238.03 178.26 255.15 178.33 265.67 C 178.40 276.19 202.08 274.83 196.00 287.00 C 189.92 299.17 175.84 291.05 168.25 284.75 C 160.66 278.45 159.31 264.90 160.00 254.00 C 160.69 243.10 161.45 228.56 156.70 218.30 C 151.94 208.04 133.84 214.63 133.01 201.99 C 132.18 189.35 149.65 193.99 155.75 185.75 C 161.85 177.51 160.11 160.74 160.00 151.00 C 159.89 141.26 159.24 124.58 166.77 118.77 C 174.30 112.96 185.83 102.01 194.75 113.25 C 203.68 124.49 181.93 126.14 179.08 134.08 C 176.22 142.01 178.43 162.18 178.00 172.00 C 177.57 181.82 175.43 194.11 166.00 200.00
M 337.00 202.00 
C 330.80 193.72 324.63 186.29 325.00 175.00 C 325.37 163.71 325.33 146.30 324.22 135.78 C 323.11 125.26 301.22 128.13 306.93 115.93 C 312.63 103.73 325.80 110.63 333.75 117.25 C 341.71 123.87 343.59 135.73 343.00 147.00 C 342.41 158.27 341.66 173.39 345.92 184.08 C 350.19 194.76 368.96 187.44 369.99 200.01 C 371.03 212.57 354.30 208.41 347.75 216.75 C 341.21 225.09 342.63 241.69 343.00 252.00 C 343.37 262.31 343.01 277.30 335.70 283.70 C 328.39 290.09 316.04 299.59 307.75 288.25 C 299.47 276.91 320.74 277.00 323.77 268.77 C 326.80 260.54 324.62 240.03 325.00 230.00 C 325.38 219.97 327.51 208.01 337.00 202.00
M 257.00 156.00 
C 272.62 160.74 263.13 188.99 246.93 182.07 C 230.72 175.16 239.08 150.56 257.00 156.00
M 256.00 220.00 
C 265.36 223.45 258.81 239.70 261.00 247.00 C 263.19 254.30 257.77 269.31 247.78 264.22 C 237.79 259.14 243.93 246.72 242.00 238.00 C 240.07 229.28 244.53 215.77 256.00 220.00 Z"/>
</g>
<g fill="None" fill-opacity="0.0" stroke="#000000" stroke-opacity="0.00" stroke-width="0.3"><path d="
M 343.00 1.00 
C 351.46 6.23 357.21 15.66 364.75 22.25 C 372.30 28.84 379.58 37.20 386.75 44.25 C 393.92 51.30 401.54 58.34 408.25 65.75 C 414.95 73.16 424.34 79.90 430.25 87.75 C 436.16 95.61 448.28 101.09 452.00 110.00
C 457.05 119.61 451.33 134.09 453.00 145.00 C 454.67 155.91 452.25 168.64 453.00 180.00 C 453.75 191.36 452.67 203.39 453.00 215.00 C 453.33 226.61 452.85 239.31 453.00 251.00 C 453.15 262.69 452.93 274.32 453.00 286.00 C 453.07 297.68 452.98 309.33 453.00 321.00 C 453.02 332.67 453.00 344.33 453.00 356.00
C 453.00 380.24 453.82 404.79 453.00 429.00 C 452.18 453.21 455.18 477.90 453.00 502.00
C 453.23 505.30 451.32 507.15 449.00 509.00
C 447.78 510.22 445.82 510.57 445.00 512.00
L 512.00 512.00
L 512.00 0.00
L 342.00 0.00
C 342.17 0.34 342.68 0.80 343.00 1.00 Z"/>
</g>
<g fill="None" fill-opacity="0.0" stroke="#E1DED4" stroke-opacity="0.21" stroke-width="0.3"><path d="
M 343.00 2.00 
C 356.59 11.50 367.03 26.46 379.25 37.75 C 391.46 49.04 403.95 61.55 415.25 73.75 C 426.55 85.96 441.54 96.48 451.00 110.00
C 451.00 110.00 451.89 109.79 452.00 110.00
C 448.28 101.09 436.16 95.61 430.25 87.75 C 424.34 79.90 414.95 73.16 408.25 65.75 C 401.54 58.34 393.92 51.30 386.75 44.25 C 379.58 37.20 372.30 28.84 364.75 22.25 C 357.21 15.66 351.46 6.23 343.00 1.00
C 343.00 1.00 343.00 1.50 343.00 2.00 Z"/>
</g>
<g fill="None" fill-opacity="0.0" stroke="#D9D7CA" stroke-opacity="1.00" stroke-width="0.3"><path d="
M 451.00 110.00 
C 441.54 96.48 426.55 85.96 415.25 73.75 C 403.95 61.55 391.46 49.04 379.25 37.75 C 367.03 26.46 356.59 11.50 343.00 2.00
C 343.00 38.00 343.00 74.00 343.00 110.00
C 379.00 110.00 415.00 110.00 451.00 110.00 Z"/>
</g>
<g fill="None" fill-opacity="0.0" stroke="#9778A8" stroke-opacity="1.00" stroke-width="0.3"><path d="
M 166.00 200.00 
C 175.43 194.11 177.57 181.82 178.00 172.00 C 178.43 162.18 176.22 142.01 179.08 134.08 C 181.93 126.14 203.68 124.49 194.75 113.25 C 185.83 102.01 174.30 112.96 166.77 118.77 C 159.24 124.58 159.89 141.26 160.00 151.00 C 160.11 160.74 161.85 177.51 155.75 185.75 C 149.65 193.99 132.18 189.35 133.01 201.99 C 133.84 214.63 151.94 208.04 156.70 218.30 C 161.45 228.56 160.69 243.10 160.00 254.00 C 159.31 264.90 160.66 278.45 168.25 284.75 C 175.84 291.05 189.92 299.17 196.00 287.00 C 202.08 274.83 178.40 276.19 178.33 265.67 C 178.26 255.15 177.60 238.03 178.00 227.00 C 178.40 215.97 171.53 208.36 166.00 200.00 Z"/>
</g>
<g fill="None" fill-opacity="0.0" stroke="#9878A8" stroke-opacity="1.00" stroke-width="0.3"><path d="
M 337.00 202.00 
C 327.51 208.01 325.38 219.97 325.00 230.00 C 324.62 240.03 326.80 260.54 323.77 268.77 C 320.74 277.00 299.47 276.91 307.75 288.25 C 316.04 299.59 328.39 290.09 335.70 283.70 C 343.01 277.30 343.37 262.31 343.00 252.00 C 342.63 241.69 341.21 225.09 347.75 216.75 C 354.30 208.41 371.03 212.57 369.99 200.01 C 368.96 187.44 350.19 194.76 345.92 184.08 C 341.66 173.39 342.41 158.27 343.00 147.00 C 343.59 135.73 341.71 123.87 333.75 117.25 C 325.80 110.63 312.63 103.73 306.93 115.93 C 301.22 128.13 323.11 125.26 324.22 135.78 C 325.33 146.30 325.37 163.71 325.00 175.00 C 324.63 186.29 330.80 193.72 337.00 202.00 Z"/>
</g>
<g fill="None" fill-opacity="0.0" stroke="#9879A9" stroke-opacity="1.00" stroke-width="0.3"><path d="
M 257.00 156.00 
C 239.08 150.56 230.72 175.16 246.93 182.07 C 263.13 188.99 272.62 160.74 257.00 156.00 Z"/>
</g>
<g fill="None" fill-opacity="0.0" stroke="#997BAA" stroke-opacity="1.00" stroke-width="0.3"><path d="
M 256.00 220.00 
C 244.53 215.77 240.07 229.28 242.00 238.00 C 243.93 246.72 237.79 259.14 247.78 264.22 C 257.77 269.31 263.19 254.30 261.00 247.00 C 258.81 239.70 265.36 223.45 256.00 220.00 Z"/>
</g>
<g fill="None" fill-opacity="0.0" stroke="#B09AB9" stroke-opacity="0.81" stroke-width="0.3"><path d="
M 59.00 502.00 
C 59.00 502.04 60.00 502.00 60.00 502.00
C 62.12 478.52 60.51 453.60 60.00 430.00 C 59.49 406.40 63.36 380.36 60.00 357.00
C 59.95 356.65 59.05 356.23 59.00 356.00
C 59.00 380.24 58.18 404.79 59.00 429.00 C 59.82 453.21 56.82 477.90 59.00 502.00 Z"/>
</g>
<g fill="None" fill-opacity="0.0" stroke="#B09AB9" stroke-opacity="0.81" stroke-width="0.3"><path d="
M 452.00 357.00 
C 448.59 380.64 454.53 405.19 452.00 429.00 C 449.47 452.81 455.35 478.27 452.00 502.00
C 452.13 501.78 453.00 502.00 453.00 502.00
C 455.18 477.90 452.18 453.21 453.00 429.00 C 453.82 404.79 453.00 380.24 453.00 356.00
C 452.95 356.23 452.05 356.65 452.00 357.00 Z"/>
</g>
<g fill="None" fill-opacity="0.0" stroke="#9777A8" stroke-opacity="1.00" stroke-width="0.3"><path d="
M 60.00 502.00 
C 60.98 506.85 65.25 509.64 69.00 512.00
L 443.00 512.00
C 444.85 509.86 449.46 508.68 451.00 506.00
C 451.50 504.92 451.83 503.24 452.00 502.00
C 455.35 478.27 449.47 452.81 452.00 429.00 C 454.53 405.19 448.59 380.64 452.00 357.00
C 434.22 360.95 414.26 355.24 396.00 357.00 C 377.74 358.76 358.47 356.27 340.00 357.00 C 321.53 357.73 302.55 356.80 284.00 357.00 C 265.45 357.20 246.55 357.20 228.00 357.00 C 209.45 356.80 190.47 357.73 172.00 357.00 C 153.53 356.27 134.26 358.76 116.00 357.00 C 97.74 355.24 77.78 360.95 60.00 357.00
C 63.36 380.36 59.49 406.40 60.00 430.00 C 60.51 453.60 62.12 478.52 60.00 502.00
M 155.00 391.00 
C 159.74 395.73 154.68 408.85 156.00 416.00 C 157.32 423.15 155.57 435.30 156.00 443.00 C 156.43 450.70 156.59 461.87 155.00 469.00 C 153.41 476.14 148.26 480.18 141.92 482.92 C 135.58 485.67 124.76 485.69 117.98 484.02 C 111.19 482.36 104.02 480.93 99.00 476.00
C 101.95 473.86 103.31 470.16 105.00 467.00
C 113.35 468.88 129.00 478.06 136.75 468.75 C 144.49 459.43 138.21 443.00 140.00 431.00 C 141.79 419.00 137.82 402.47 141.00 391.00
C 142.92 389.08 153.13 389.13 155.00 391.00
M 226.00 395.00 
C 224.66 405.32 218.46 406.17 210.00 404.00 C 201.54 401.83 192.70 407.73 192.01 416.01 C 191.31 424.29 199.57 429.03 206.08 431.92 C 212.58 434.82 219.68 437.56 224.75 443.25 C 229.83 448.93 231.41 458.61 229.07 466.07 C 226.74 473.54 222.39 478.47 214.92 481.92 C 207.46 485.38 197.54 485.66 188.99 484.01 C 180.44 482.35 173.77 477.40 179.00 468.00
C 188.77 473.69 215.43 477.64 215.99 460.99 C 216.55 444.34 197.25 444.76 187.30 435.70 C 177.35 426.63 172.96 409.93 184.25 399.25 C 195.54 388.56 212.59 389.17 226.00 395.00
M 288.00 391.00 
C 338.17 398.17 328.38 492.11 277.00 485.00 C 225.62 477.89 236.21 383.60 288.00 391.00
M 392.00 455.00 
C 394.33 434.91 392.34 412.85 393.00 392.00
C 398.33 392.00 403.67 392.00 409.00 392.00
C 409.00 423.00 409.00 454.00 409.00 485.00
C 390.21 490.85 386.01 470.69 378.25 458.75 C 370.48 446.82 365.53 433.23 357.00 422.00
C 357.00 443.00 357.00 464.00 357.00 485.00
C 352.00 485.00 347.00 485.00 342.00 485.00
C 342.00 454.00 342.00 423.00 342.00 392.00
C 360.27 386.61 364.39 406.43 371.77 418.23 C 379.16 430.02 385.83 442.63 392.00 455.00 Z"/>
</g>
<g fill="None" fill-opacity="0.0" stroke="#C5B3CE" stroke-opacity="1.00" stroke-width="0.3"><path d="
M 141.00 391.00 
C 142.05 390.26 153.95 390.26 155.00 391.00
C 153.13 389.13 142.92 389.08 141.00 391.00 Z"/>
</g>
<g fill="None" fill-opacity="0.0" stroke="#FBF9FB" stroke-opacity="1.00" stroke-width="0.3"><path d="
M 155.00 391.00 
C 153.95 390.26 142.05 390.26 141.00 391.00
C 137.82 402.47 141.79 419.00 140.00 431.00 C 138.21 443.00 144.49 459.43 136.75 468.75 C 129.00 478.06 113.35 468.88 105.00 467.00
C 103.31 470.16 101.95 473.86 99.00 476.00
C 104.02 480.93 111.19 482.36 117.98 484.02 C 124.76 485.69 135.58 485.67 141.92 482.92 C 148.26 480.18 153.41 476.14 155.00 469.00 C 156.59 461.87 156.43 450.70 156.00 443.00 C 155.57 435.30 157.32 423.15 156.00 416.00 C 154.68 408.85 159.74 395.73 155.00 391.00 Z"/>
</g>
<g fill="None" fill-opacity="0.0" stroke="#FCFBFD" stroke-opacity="1.00" stroke-width="0.3"><path d="
M 226.00 395.00 
C 212.59 389.17 195.54 388.56 184.25 399.25 C 172.96 409.93 177.35 426.63 187.30 435.70 C 197.25 444.76 216.55 444.34 215.99 460.99 C 215.43 477.64 188.77 473.69 179.00 468.00
C 173.77 477.40 180.44 482.35 188.99 484.01 C 197.54 485.66 207.46 485.38 214.92 481.92 C 222.39 478.47 226.74 473.54 229.07 466.07 C 231.41 458.61 229.83 448.93 224.75 443.25 C 219.68 437.56 212.58 434.82 206.08 431.92 C 199.57 429.03 191.31 424.29 192.01 416.01 C 192.70 407.73 201.54 401.83 210.00 404.00 C 218.46 406.17 224.66 405.32 226.00 395.00 Z"/>
</g>
<g fill="None" fill-opacity="0.0" stroke="#FCFCFD" stroke-opacity="1.00" stroke-width="0.3"><path d="
M 288.00 391.00 
C 236.21 383.60 225.62 477.89 277.00 485.00 C 328.38 492.11 338.17 398.17 288.00 391.00
M 285.00 403.00 
C 303.20 404.74 304.42 426.77 305.00 441.00 C 305.58 455.23 296.67 476.38 279.00 473.00 C 261.33 469.62 259.36 449.30 259.00 435.00 C 258.64 420.70 267.94 401.37 285.00 403.00 Z"/>
</g>
<g fill="None" fill-opacity="0.0" stroke="#FCFBFC" stroke-opacity="1.00" stroke-width="0.3"><path d="
M 392.00 455.00 
C 385.83 442.63 379.16 430.02 371.77 418.23 C 364.39 406.43 360.27 386.61 342.00 392.00
C 342.00 423.00 342.00 454.00 342.00 485.00
C 347.00 485.00 352.00 485.00 357.00 485.00
C 357.00 464.00 357.00 443.00 357.00 422.00
C 365.53 433.23 370.48 446.82 378.25 458.75 C 386.01 470.69 390.21 490.85 409.00 485.00
C 409.00 454.00 409.00 423.00 409.00 392.00
C 403.67 392.00 398.33 392.00 393.00 392.00
C 392.34 412.85 394.33 434.91 392.00 455.00 Z"/>
</g>
<g fill="None" fill-opacity="0.0" stroke="#9778A8" stroke-opacity="1.00" stroke-width="0.3"><path d="
M 285.00 403.00 
C 267.94 401.37 258.64 420.70 259.00 435.00 C 259.36 449.30 261.33 469.62 279.00 473.00 C 296.67 476.38 305.58 455.23 305.00 441.00 C 304.42 426.77 303.20 404.74 285.00 403.00 Z"/>
</g>
<g fill="None" fill-opacity="0.0" stroke="#D6D1D4" stroke-opacity="0.38" stroke-width="0.3"><path d="
M 67.00 512.00 
L 69.00 512.00
C 65.25 509.64 60.98 506.85 60.00 502.00
C 60.00 502.00 59.00 502.04 59.00 502.00
C 58.63 507.32 63.79 509.19 67.00 512.00 Z"/>
</g>
<g fill="None" fill-opacity="0.0" stroke="#E3E2DF" stroke-opacity="0.31" stroke-width="0.3"><path d="
M 451.00 506.00 
C 450.60 506.85 449.61 508.39 449.00 509.00
C 451.32 507.15 453.23 505.30 453.00 502.00
C 453.00 502.00 452.13 501.78 452.00 502.00
C 451.83 503.24 451.50 504.92 451.00 506.00 Z"/>
</g>
<g fill="None" fill-opacity="0.0" stroke="#C9C1C9" stroke-opacity="0.46" stroke-width="0.3"><path d="
M 443.00 512.00 
L 445.00 512.00
C 445.82 510.57 447.78 510.22 449.00 509.00
C 449.61 508.39 450.60 506.85 451.00 506.00
C 449.46 508.68 444.85 509.86 443.00 512.00 Z"/>
</g>
<g fill="#000000" fill-opacity="0.00" stroke="None">
<path d="
M 0.00 512.00 
L 67.00 512.00
C 63.79 509.19 58.63 507.32 59.00 502.00
C 56.82 477.90 59.82 453.21 59.00 429.00 C 58.18 404.79 59.00 380.24 59.00 356.00
C 59.00 331.79 58.90 307.18 59.00 283.00 C 59.10 258.82 58.73 234.03 59.00 210.00 C 59.27 185.97 58.37 160.68 59.00 137.00 C 59.63 113.32 57.60 86.90 59.00 64.00 C 60.40 41.10 52.05 15.83 68.00 0.00
L 0.00 0.00
L 0.00 512.00 Z"/>
</g>
<g fill="#E8E8DF" fill-opacity="1.00" stroke="None">
<path d="
M 59.00 356.00 
C 59.05 356.23 59.95 356.65 60.00 357.00
C 77.78 360.95 97.74 355.24 116.00 357.00 C 134.26 358.76 153.53 356.27 172.00 357.00 C 190.47 357.73 209.45 356.80 228.00 357.00 C 246.55 357.20 265.45 357.20 284.00 357.00 C 302.55 356.80 321.53 357.73 340.00 357.00 C 358.47 356.27 377.74 358.76 396.00 357.00 C 414.26 355.24 434.22 360.95 452.00 357.00
C 452.05 356.65 452.95 356.23 453.00 356.00
C 453.00 344.33 453.02 332.67 453.00 321.00 C 452.98 309.33 453.07 297.68 453.00 286.00 C 452.93 274.32 453.15 262.69 453.00 251.00 C 452.85 239.31 453.33 226.61 453.00 215.00 C 452.67 203.39 453.75 191.36 453.00 180.00 C 452.25 168.64 454.67 155.91 453.00 145.00 C 451.33 134.09 457.05 119.61 452.00 110.00
C 451.89 109.79 451.00 110.00 451.00 110.00
C 415.00 110.00 379.00 110.00 343.00 110.00
C 343.00 74.00 343.00 38.00 343.00 2.00
C 343.00 1.50 343.00 1.00 343.00 1.00
C 342.68 0.80 342.17 0.34 342.00 0.00
L 68.00 0.00
C 52.05 15.83 60.40 41.10 59.00 64.00 C 57.60 86.90 59.63 113.32 59.00 137.00 C 58.37 160.68 59.27 185.97 59.00 210.00 C 58.73 234.03 59.10 258.82 59.00 283.00 C 58.90 307.18 59.00 331.79 59.00 356.00
M 166.00 200.00 
C 171.53 208.36 178.40 215.97 178.00 227.00 C 177.60 238.03 178.26 255.15 178.33 265.67 C 178.40 276.19 202.08 274.83 196.00 287.00 C 189.92 299.17 175.84 291.05 168.25 284.75 C 160.66 278.45 159.31 264.90 160.00 254.00 C 160.69 243.10 161.45 228.56 156.70 218.30 C 151.94 208.04 133.84 214.63 133.01 201.99 C 132.18 189.35 149.65 193.99 155.75 185.75 C 161.85 177.51 160.11 160.74 160.00 151.00 C 159.89 141.26 159.24 124.58 166.77 118.77 C 174.30 112.96 185.83 102.01 194.75 113.25 C 203.68 124.49 181.93 126.14 179.08 134.08 C 176.22 142.01 178.43 162.18 178.00 172.00 C 177.57 181.82 175.43 194.11 166.00 200.00
M 337.00 202.00 
C 330.80 193.72 324.63 186.29 325.00 175.00 C 325.37 163.71 325.33 146.30 324.22 135.78 C 323.11 125.26 301.22 128.13 306.93 115.93 C 312.63 103.73 325.80 110.63 333.75 117.25 C 341.71 123.87 343.59 135.73 343.00 147.00 C 342.41 158.27 341.66 173.39 345.92 184.08 C 350.19 194.76 368.96 187.44 369.99 200.01 C 371.03 212.57 354.30 208.41 347.75 216.75 C 341.21 225.09 342.63 241.69 343.00 252.00 C 343.37 262.31 343.01 277.30 335.70 283.70 C 328.39 290.09 316.04 299.59 307.75 288.25 C 299.47 276.91 320.74 277.00 323.77 268.77 C 326.80 260.54 324.62 240.03 325.00 230.00 C 325.38 219.97 327.51 208.01 337.00 202.00
M 257.00 156.00 
C 272.62 160.74 263.13 188.99 246.93 182.07 C 230.72 175.16 239.08 150.56 257.00 156.00
M 256.00 220.00 
C 265.36 223.45 258.81 239.70 261.00 247.00 C 263.19 254.30 257.77 269.31 247.78 264.22 C 237.79 259.14 243.93 246.72 242.00 238.00 C 240.07 229.28 244.53 215.77 256.00 220.00 Z"/>
</g>
<g fill="#000000" fill-opacity="0.00" stroke="None">
<path d="
M 343.00 1.00 
C 351.46 6.23 357.21 15.66 364.75 22.25 C 372.30 28.84 379.58 37.20 386.75 44.25 C 393.92 51.30 401.54 58.34 408.25 65.75 C 414.95 73.16 424.34 79.90 430.25 87.75 C 436.16 95.61 448.28 101.09 452.00 110.00
C 457.05 119.61 451.33 134.09 453.00 145.00 C 454.67 155.91 452.25 168.64 453.00 180.00 C 453.75 191.36 452.67 203.39 453.00 215.00 C 453.33 226.61 452.85 239.31 453.00 251.00 C 453.15 262.69 452.93 274.32 453.00 286.00 C 453.07 297.68 452.98 309.33 453.00 321.00 C 453.02 332.67 453.00 344.33 453.00 356.00
C 453.00 380.24 453.82 404.79 453.00 429.00 C 452.18 453.21 455.18 477.90 453.00 502.00
C 453.23 505.30 451.32 507.15 449.00 509.00
C 447.78 510.22 445.82 510.57 445.00 512.00
L 512.00 512.00
L 512.00 0.00
L 342.00 0.00
C 342.17 0.34 342.68 0.80 343.00 1.00 Z"/>
</g>
<g fill="#E1DED4" fill-opacity="0.21" stroke="None">
<path d="
M 343.00 2.00 
C 356.59 11.50 367.03 26.46 379.25 37.75 C 391.46 49.04 403.95 61.55 415.25 73.75 C 426.55 85.96 441.54 96.48 451.00 110.00
C 451.00 110.00 451.89 109.79 452.00 110.00
C 448.28 101.09 436.16 95.61 430.25 87.75 C 424.34 79.90 414.95 73.16 408.25 65.75 C 401.54 58.34 393.92 51.30 386.75 44.25 C 379.58 37.20 372.30 28.84 364.75 22.25 C 357.21 15.66 351.46 6.23 343.00 1.00
C 343.00 1.00 343.00 1.50 343.00 2.00 Z"/>
</g>
<g fill="#D9D7CA" fill-opacity="1.00" stroke="None">
<path d="
M 451.00 110.00 
C 441.54 96.48 426.55 85.96 415.25 73.75 C 403.95 61.55 391.46 49.04 379.25 37.75 C 367.03 26.46 356.59 11.50 343.00 2.00
C 343.00 38.00 343.00 74.00 343.00 110.00
C 379.00 110.00 415.00 110.00 451.00 110.00 Z"/>
</g>
<g fill="#9778A8" fill-opacity="1.00" stroke="None">
<path d="
M 166.00 200.00 
C 175.43 194.11 177.57 181.82 178.00 172.00 C 178.43 162.18 176.22 142.01 179.08 134.08 C 181.93 126.14 203.68 124.49 194.75 113.25 C 185.83 102.01 174.30 112.96 166.77 118.77 C 159.24 124.58 159.89 141.26 160.00 151.00 C 160.11 160.74 161.85 177.51 155.75 185.75 C 149.65 193.99 132.18 189.35 133.01 201.99 C 133.84 214.63 151.94 208.04 156.70 218.30 C 161.45 228.56 160.69 243.10 160.00 254.00 C 159.31 264.90 160.66 278.45 168.25 284.75 C 175.84 291.05 189.92 299.17 196.00 287.00 C 202.08 274.83 178.40 276.19 178.33 265.67 C 178.26 255.15 177.60 238.03 178.00 227.00 C 178.40 215.97 171.53 208.36 166.00 200.00 Z"/>
</g>
<g fill="#9878A8" fill-opacity="1.00" stroke="None">
<path d="
M 337.00 202.00 
C 327.51 208.01 325.38 219.97 325.00 230.00 C 324.62 240.03 326.80 260.54 323.77 268.77 C 320.74 277.00 299.47 276.91 307.75 288.25 C 316.04 299.59 328.39 290.09 335.70 283.70 C 343.01 277.30 343.37 262.31 343.00 252.00 C 342.63 241.69 341.21 225.09 347.75 216.75 C 354.30 208.41 371.03 212.57 369.99 200.01 C 368.96 187.44 350.19 194.76 345.92 184.08 C 341.66 173.39 342.41 158.27 343.00 147.00 C 343.59 135.73 341.71 123.87 333.75 117.25 C 325.80 110.63 312.63 103.73 306.93 115.93 C 301.22 128.13 323.11 125.26 324.22 135.78 C 325.33 146.30 325.37 163.71 325.00 175.00 C 324.63 186.29 330.80 193.72 337.00 202.00 Z"/>
</g>
<g fill="#9879A9" fill-opacity="1.00" stroke="None">
<path d="
M 257.00 156.00 
C 239.08 150.56 230.72 175.16 246.93 182.07 C 263.13 188.99 272.62 160.74 257.00 156.00 Z"/>
</g>
<g fill="#997BAA" fill-opacity="1.00" stroke="None">
<path d="
M 256.00 220.00 
C 244.53 215.77 240.07 229.28 242.00 238.00 C 243.93 246.72 237.79 259.14 247.78 264.22 C 257.77 269.31 263.19 254.30 261.00 247.00 C 258.81 239.70 265.36 223.45 256.00 220.00 Z"/>
</g>
<g fill="#B09AB9" fill-opacity="0.81" stroke="None">
<path d="
M 59.00 502.00 
C 59.00 502.04 60.00 502.00 60.00 502.00
C 62.12 478.52 60.51 453.60 60.00 430.00 C 59.49 406.40 63.36 380.36 60.00 357.00
C 59.95 356.65 59.05 356.23 59.00 356.00
C 59.00 380.24 58.18 404.79 59.00 429.00 C 59.82 453.21 56.82 477.90 59.00 502.00 Z"/>
</g>
<g fill="#B09AB9" fill-opacity="0.81" stroke="None">
<path d="
M 452.00 357.00 
C 448.59 380.64 454.53 405.19 452.00 429.00 C 449.47 452.81 455.35 478.27 452.00 502.00
C 452.13 501.78 453.00 502.00 453.00 502.00
C 455.18 477.90 452.18 453.21 453.00 429.00 C 453.82 404.79 453.00 380.24 453.00 356.00
C 452.95 356.23 452.05 356.65 452.00 357.00 Z"/>
</g>
<g fill="#9777A8" fill-opacity="1.00" stroke="None">
<path d="
M 60.00 502.00 
C 60.98 506.85 65.25 509.64 69.00 512.00
L 443.00 512.00
C 444.85 509.86 449.46 508.68 451.00 506.00
C 451.50 504.92 451.83 503.24 452.00 502.00
C 455.35 478.27 449.47 452.81 452.00 429.00 C 454.53 405.19 448.59 380.64 452.00 357.00
C 434.22 360.95 414.26 355.24 396.00 357.00 C 377.74 358.76 358.47 356.27 340.00 357.00 C 321.53 357.73 302.55 356.80 284.00 357.00 C 265.45 357.20 246.55 357.20 228.00 357.00 C 209.45 356.80 190.47 357.73 172.00 357.00 C 153.53 356.27 134.26 358.76 116.00 357.00 C 97.74 355.24 77.78 360.95 60.00 357.00
C 63.36 380.36 59.49 406.40 60.00 430.00 C 60.51 453.60 62.12 478.52 60.00 502.00
M 155.00 391.00 
C 159.74 395.73 154.68 408.85 156.00 416.00 C 157.32 423.15 155.57 435.30 156.00 443.00 C 156.43 450.70 156.59 461.87 155.00 469.00 C 153.41 476.14 148.26 480.18 141.92 482.92 C 135.58 485.67 124.76 485.69 117.98 484.02 C 111.19 482.36 104.02 480.93 99.00 476.00
C 101.95 473.86 103.31 470.16 105.00 467.00
C 113.35 468.88 129.00 478.06 136.75 468.75 C 144.49 459.43 138.21 443.00 140.00 431.00 C 141.79 419.00 137.82 402.47 141.00 391.00
C 142.92 389.08 153.13 389.13 155.00 391.00
M 226.00 395.00 
C 224.66 405.32 218.46 406.17 210.00 404.00 C 201.54 401.83 192.70 407.73 192.01 416.01 C 191.31 424.29 199.57 429.03 206.08 431.92 C 212.58 434.82 219.68 437.56 224.75 443.25 C 229.83 448.93 231.41 458.61 229.07 466.07 C 226.74 473.54 222.39 478.47 214.92 481.92 C 207.46 485.38 197.54 485.66 188.99 484.01 C 180.44 482.35 173.77 477.40 179.00 468.00
C 188.77 473.69 215.43 477.64 215.99 460.99 C 216.55 444.34 197.25 444.76 187.30 435.70 C 177.35 426.63 172.96 409.93 184.25 399.25 C 195.54 388.56 212.59 389.17 226.00 395.00
M 288.00 391.00 
C 338.17 398.17 328.38 492.11 277.00 485.00 C 225.62 477.89 236.21 383.60 288.00 391.00
M 392.00 455.00 
C 394.33 434.91 392.34 412.85 393.00 392.00
C 398.33 392.00 403.67 392.00 409.00 392.00
C 409.00 423.00 409.00 454.00 409.00 485.00
C 390.21 490.85 386.01 470.69 378.25 458.75 C 370.48 446.82 365.53 433.23 357.00 422.00
C 357.00 443.00 357.00 464.00 357.00 485.00
C 352.00 485.00 347.00 485.00 342.00 485.00
C 342.00 454.00 342.00 423.00 342.00 392.00
C 360.27 386.61 364.39 406.43 371.77 418.23 C 379.16 430.02 385.83 442.63 392.00 455.00 Z"/>
</g>
<g fill="#C5B3CE" fill-opacity="1.00" stroke="None">
<path d="
M 141.00 391.00 
C 142.05 390.26 153.95 390.26 155.00 391.00
C 153.13 389.13 142.92 389.08 141.00 391.00 Z"/>
</g>
<g fill="#FBF9FB" fill-opacity="1.00" stroke="None">
<path d="
M 155.00 391.00 
C 153.95 390.26 142.05 390.26 141.00 391.00
C 137.82 402.47 141.79 419.00 140.00 431.00 C 138.21 443.00 144.49 459.43 136.75 468.75 C 129.00 478.06 113.35 468.88 105.00 467.00
C 103.31 470.16 101.95 473.86 99.00 476.00
C 104.02 480.93 111.19 482.36 117.98 484.02 C 124.76 485.69 135.58 485.67 141.92 482.92 C 148.26 480.18 153.41 476.14 155.00 469.00 C 156.59 461.87 156.43 450.70 156.00 443.00 C 155.57 435.30 157.32 423.15 156.00 416.00 C 154.68 408.85 159.74 395.73 155.00 391.00 Z"/>
</g>
<g fill="#FCFBFD" fill-opacity="1.00" stroke="None">
<path d="
M 226.00 395.00 
C 212.59 389.17 195.54 388.56 184.25 399.25 C 172.96 409.93 177.35 426.63 187.30 435.70 C 197.25 444.76 216.55 444.34 215.99 460.99 C 215.43 477.64 188.77 473.69 179.00 468.00
C 173.77 477.40 180.44 482.35 188.99 484.01 C 197.54 485.66 207.46 485.38 214.92 481.92 C 222.39 478.47 226.74 473.54 229.07 466.07 C 231.41 458.61 229.83 448.93 224.75 443.25 C 219.68 437.56 212.58 434.82 206.08 431.92 C 199.57 429.03 191.31 424.29 192.01 416.01 C 192.70 407.73 201.54 401.83 210.00 404.00 C 218.46 406.17 224.66 405.32 226.00 395.00 Z"/>
</g>
<g fill="#FCFCFD" fill-opacity="1.00" stroke="None">
<path d="
M 288.00 391.00 
C 236.21 383.60 225.62 477.89 277.00 485.00 C 328.38 492.11 338.17 398.17 288.00 391.00
M 285.00 403.00 
C 303.20 404.74 304.42 426.77 305.00 441.00 C 305.58 455.23 296.67 476.38 279.00 473.00 C 261.33 469.62 259.36 449.30 259.00 435.00 C 258.64 420.70 267.94 401.37 285.00 403.00 Z"/>
</g>
<g fill="#FCFBFC" fill-opacity="1.00" stroke="None">
<path d="
M 392.00 455.00 
C 385.83 442.63 379.16 430.02 371.77 418.23 C 364.39 406.43 360.27 386.61 342.00 392.00
C 342.00 423.00 342.00 454.00 342.00 485.00
C 347.00 485.00 352.00 485.00 357.00 485.00
C 357.00 464.00 357.00 443.00 357.00 422.00
C 365.53 433.23 370.48 446.82 378.25 458.75 C 386.01 470.69 390.21 490.85 409.00 485.00
C 409.00 454.00 409.00 423.00 409.00 392.00
C 403.67 392.00 398.33 392.00 393.00 392.00
C 392.34 412.85 394.33 434.91 392.00 455.00 Z"/>
</g>
<g fill="#9778A8" fill-opacity="1.00" stroke="None">
<path d="
M 285.00 403.00 
C 267.94 401.37 258.64 420.70 259.00 435.00 C 259.36 449.30 261.33 469.62 279.00 473.00 C 296.67 476.38 305.58 455.23 305.00 441.00 C 304.42 426.77 303.20 404.74 285.00 403.00 Z"/>
</g>
<g fill="#D6D1D4" fill-opacity="0.38" stroke="None">
<path d="
M 67.00 512.00 
L 69.00 512.00
C 65.25 509.64 60.98 506.85 60.00 502.00
C 60.00 502.00 59.00 502.04 59.00 502.00
C 58.63 507.32 63.79 509.19 67.00 512.00 Z"/>
</g>
<g fill="#E3E2DF" fill-opacity="0.31" stroke="None">
<path d="
M 451.00 506.00 
C 450.60 506.85 449.61 508.39 449.00 509.00
C 451.32 507.15 453.23 505.30 453.00 502.00
C 453.00 502.00 452.13 501.78 452.00 502.00
C 451.83 503.24 451.50 504.92 451.00 506.00 Z"/>
</g>
<g fill="#C9C1C9" fill-opacity="0.46" stroke="None">
<path d="
M 443.00 512.00 
L 445.00 512.00
C 445.82 510.57 447.78 510.22 449.00 509.00
C 449.61 508.39 450.60 506.85 451.00 506.00
C 449.46 508.68 444.85 509.86 443.00 512.00 Z"/>
</g>
</svg>