<svg xmlns="http://www.w3.org/2000/svg" xmlns:v="https://svgstorm.com"
viewBox = "0 0 512 512"
width="512"
height="512">
<g fill="None" fill-opacity="0.0" stroke="#000000" stroke-opacity="0.00" stroke-width="0.3"><path d="
M 0.00 512.00 
L 67.00 512.00
C 66.22 510.71 64.02 510.13 63.00 509.00
C 60.64 507.12 58.77 505.33 59.00 502.00
C 56.82 477.90 59.82 453.21 59.00 429.00 C 58.18 404.79 59.00 380.24 59.00 356.00
C 59.00 318.23 58.50 280.80 59.00 243.00 C 59.50 205.20 57.69 166.81 59.00 129.00 C 60.31 91.19 56.01 52.70 59.00 15.00
C 59.49 8.82 62.34 2.65 68.00 0.00
L 0.00 0.00
L 0.00 512.00 Z"/>
</g>
<g fill="None" fill-opacity="0.0" stroke="#E8E8DF" stroke-opacity="1.00" stroke-width="0.3"><path d="
M 59.00 15.00 
C 59.65 51.93 60.90 90.27 60.00 128.00 C 59.10 165.73 61.61 204.24 60.00 242.00 C 58.39 279.76 63.40 318.38 60.00 356.00
C 92.35 353.06 125.50 357.10 158.00 356.00 C 190.50 354.90 223.46 356.00 256.00 356.00 C 288.54 356.00 321.50 354.90 354.00 356.00 C 386.50 357.10 419.65 353.08 452.00 356.00
C 448.45 316.60 453.26 275.52 452.00 236.00 C 450.74 196.48 451.35 155.66 453.00 117.00
C 452.87 114.65 453.09 112.08 452.00 110.00
C 451.89 109.79 451.00 110.00 451.00 110.00
C 415.00 110.00 379.00 110.00 343.00 110.00
C 343.00 74.00 343.00 38.00 343.00 2.00
C 343.00 1.50 343.00 1.00 343.00 1.00
C 342.68 0.80 342.17 0.34 342.00 0.00
L 68.00 0.00
C 62.34 2.65 59.49 8.82 59.00 15.00
M 258.00 63.00 
C 274.13 65.91 273.06 90.45 271.01 103.01 C 268.96 115.57 262.74 134.62 270.92 146.08 C 279.10 157.53 283.43 169.01 292.25 179.75 C 301.07 190.50 307.01 205.11 321.22 202.22 C 335.43 199.34 358.25 197.25 367.75 209.25 C 377.26 221.25 362.02 239.22 348.99 240.99 C 335.96 242.76 321.97 234.21 311.75 225.25 C 301.53 216.29 282.58 227.36 270.32 230.32 C 258.06 233.29 240.67 239.54 229.31 245.31 C 217.94 251.07 216.85 270.12 208.23 279.23 C 199.60 288.34 193.63 304.49 178.98 304.98 C 164.32 305.46 154.16 284.15 161.92 272.92 C 169.69 261.70 178.52 253.00 190.75 246.75 C 202.97 240.49 217.11 234.88 220.31 220.31 C 223.50 205.73 233.04 194.57 235.32 180.32 C 237.60 166.08 248.63 152.28 247.99 137.99 C 247.35 123.71 236.03 110.26 235.07 95.93 C 234.12 81.60 238.88 59.55 258.00 63.00 Z"/>
</g>
<g fill="None" fill-opacity="0.0" stroke="#000000" stroke-opacity="0.00" stroke-width="0.3"><path d="
M 343.00 1.00 
C 351.46 6.23 357.21 15.66 364.75 22.25 C 372.30 28.84 379.58 37.20 386.75 44.25 C 393.92 51.30 401.54 58.34 408.25 65.75 C 414.95 73.16 424.34 79.90 430.25 87.75 C 436.16 95.61 448.28 101.09 452.00 110.00
C 453.09 112.08 452.87 114.65 453.00 117.00
C 455.15 156.65 452.20 196.24 453.00 236.00 C 453.80 275.76 453.00 316.18 453.00 356.00
C 453.00 380.24 453.82 404.79 453.00 429.00 C 452.18 453.21 455.18 477.90 453.00 502.00
C 453.23 505.30 451.32 507.15 449.00 509.00
C 447.85 510.28 445.76 510.52 445.00 512.00
L 512.00 512.00
L 512.00 0.00
L 342.00 0.00
C 342.17 0.34 342.68 0.80 343.00 1.00 Z"/>
</g>
<g fill="None" fill-opacity="0.0" stroke="#E1DED4" stroke-opacity="0.21" stroke-width="0.3"><path d="
M 343.00 2.00 
C 356.59 11.50 367.03 26.46 379.25 37.75 C 391.46 49.04 403.95 61.55 415.25 73.75 C 426.55 85.96 441.54 96.48 451.00 110.00
C 451.00 110.00 451.89 109.79 452.00 110.00
C 448.28 101.09 436.16 95.61 430.25 87.75 C 424.34 79.90 414.95 73.16 408.25 65.75 C 401.54 58.34 393.92 51.30 386.75 44.25 C 379.58 37.20 372.30 28.84 364.75 22.25 C 357.21 15.66 351.46 6.23 343.00 1.00
C 343.00 1.00 343.00 1.50 343.00 2.00 Z"/>
</g>
<g fill="None" fill-opacity="0.0" stroke="#D9D7CA" stroke-opacity="1.00" stroke-width="0.3"><path d="
M 451.00 110.00 
C 441.54 96.48 426.55 85.96 415.25 73.75 C 403.95 61.55 391.46 49.04 379.25 37.75 C 367.03 26.46 356.59 11.50 343.00 2.00
C 343.00 38.00 343.00 74.00 343.00 110.00
C 379.00 110.00 415.00 110.00 451.00 110.00 Z"/>
</g>
<g fill="None" fill-opacity="0.0" stroke="#E9E9DF" stroke-opacity="0.56" stroke-width="0.3"><path d="
M 59.00 356.00 
C 59.00 355.96 60.00 356.00 60.00 356.00
C 63.40 318.38 58.39 279.76 60.00 242.00 C 61.61 204.24 59.10 165.73 60.00 128.00 C 60.90 90.27 59.65 51.93 59.00 15.00
C 56.01 52.70 60.31 91.19 59.00 129.00 C 57.69 166.81 59.50 205.20 59.00 243.00 C 58.50 280.80 59.00 318.23 59.00 356.00 Z"/>
</g>
<g fill="None" fill-opacity="0.0" stroke="#CC4E4E" stroke-opacity="1.00" stroke-width="0.3"><path d="
M 258.00 63.00 
C 238.88 59.55 234.12 81.60 235.07 95.93 C 236.03 110.26 247.35 123.71 247.99 137.99 C 248.63 152.28 237.60 166.08 235.32 180.32 C 233.04 194.57 223.50 205.73 220.31 220.31 C 217.11 234.88 202.97 240.49 190.75 246.75 C 178.52 253.00 169.69 261.70 161.92 272.92 C 154.16 284.15 164.32 305.46 178.98 304.98 C 193.63 304.49 199.60 288.34 208.23 279.23 C 216.85 270.12 217.94 251.07 229.31 245.31 C 240.67 239.54 258.06 233.29 270.32 230.32 C 282.58 227.36 301.53 216.29 311.75 225.25 C 321.97 234.21 335.96 242.76 348.99 240.99 C 362.02 239.22 377.26 221.25 367.75 209.25 C 358.25 197.25 335.43 199.34 321.22 202.22 C 307.01 205.11 301.07 190.50 292.25 179.75 C 283.43 169.01 279.10 157.53 270.92 146.08 C 262.74 134.62 268.96 115.57 271.01 103.01 C 273.06 90.45 274.13 65.91 258.00 63.00
M 254.00 80.00 
C 260.07 88.09 258.26 99.21 255.00 108.00
C 246.19 102.41 246.65 87.03 254.00 80.00
M 294.00 208.00 
C 274.11 211.65 255.27 219.22 236.00 225.00
C 243.39 202.65 252.65 180.78 259.00 158.00
C 269.96 174.88 280.75 192.33 294.00 208.00
M 354.00 218.00 
C 350.46 230.61 334.47 225.50 328.00 218.00
C 335.79 215.96 346.00 214.54 354.00 218.00
M 202.00 259.00 
C 196.05 269.92 189.19 280.62 180.00 289.00
C 170.08 285.81 177.46 275.42 183.25 271.25 C 189.04 267.08 195.24 261.44 202.00 259.00 Z"/>
</g>
<g fill="None" fill-opacity="0.0" stroke="#E8E5DC" stroke-opacity="1.00" stroke-width="0.3"><path d="
M 254.00 80.00 
C 246.65 87.03 246.19 102.41 255.00 108.00
C 258.26 99.21 260.07 88.09 254.00 80.00 Z"/>
</g>
<g fill="None" fill-opacity="0.0" stroke="#E9E9DF" stroke-opacity="0.56" stroke-width="0.3"><path d="
M 452.00 356.00 
C 452.25 355.75 453.00 356.00 453.00 356.00
C 453.00 316.18 453.80 275.76 453.00 236.00 C 452.20 196.24 455.15 156.65 453.00 117.00
C 451.35 155.66 450.74 196.48 452.00 236.00 C 453.26 275.52 448.45 316.60 452.00 356.00 Z"/>
</g>
<g fill="None" fill-opacity="0.0" stroke="#E8E7DE" stroke-opacity="1.00" stroke-width="0.3"><path d="
M 294.00 208.00 
C 280.75 192.33 269.96 174.88 259.00 158.00
C 252.65 180.78 243.39 202.65 236.00 225.00
C 255.27 219.22 274.11 211.65 294.00 208.00 Z"/>
</g>
<g fill="None" fill-opacity="0.0" stroke="#E7E1D8" stroke-opacity="1.00" stroke-width="0.3"><path d="
M 354.00 218.00 
C 346.00 214.54 335.79 215.96 328.00 218.00
C 334.47 225.50 350.46 230.61 354.00 218.00 Z"/>
</g>
<g fill="None" fill-opacity="0.0" stroke="#E8E4DB" stroke-opacity="1.00" stroke-width="0.3"><path d="
M 202.00 259.00 
C 195.24 261.44 189.04 267.08 183.25 271.25 C 177.46 275.42 170.08 285.81 180.00 289.00
C 189.19 280.62 196.05 269.92 202.00 259.00 Z"/>
</g>
<g fill="None" fill-opacity="0.0" stroke="#D57C79" stroke-opacity="0.81" stroke-width="0.3"><path d="
M 59.00 502.00 
C 59.00 502.04 60.00 502.00 60.00 502.00
C 62.16 478.10 59.21 454.05 60.00 430.00 C 60.79 405.95 60.00 381.12 60.00 357.00
C 60.00 356.50 60.00 356.00 60.00 356.00
C 60.00 356.00 59.00 355.96 59.00 356.00
C 59.00 380.24 58.18 404.79 59.00 429.00 C 59.82 453.21 56.82 477.90 59.00 502.00 Z"/>
</g>
<g fill="None" fill-opacity="0.0" stroke="#DCA49F" stroke-opacity="1.00" stroke-width="0.3"><path d="
M 60.00 357.00 
C 92.36 359.92 125.50 355.90 158.00 357.00 C 190.50 358.10 223.45 357.00 256.00 357.00 C 288.55 357.00 321.49 358.09 354.00 357.00 C 386.51 355.91 419.64 359.91 452.00 357.00
C 452.00 356.50 452.00 356.00 452.00 356.00
C 419.65 353.08 386.50 357.10 354.00 356.00 C 321.50 354.90 288.54 356.00 256.00 356.00 C 223.46 356.00 190.50 354.90 158.00 356.00 C 125.50 357.10 92.35 353.06 60.00 356.00
C 60.00 356.00 60.00 356.50 60.00 357.00 Z"/>
</g>
<g fill="None" fill-opacity="0.0" stroke="#D57C79" stroke-opacity="0.81" stroke-width="0.3"><path d="
M 452.00 357.00 
C 452.00 381.04 451.17 404.95 452.00 429.00 C 452.83 453.05 449.84 478.02 452.00 502.00
C 452.04 501.86 453.00 502.00 453.00 502.00
C 455.18 477.90 452.18 453.21 453.00 429.00 C 453.82 404.79 453.00 380.24 453.00 356.00
C 453.00 356.00 452.25 355.75 452.00 356.00
C 452.00 356.00 452.00 356.50 452.00 357.00 Z"/>
</g>
<g fill="None" fill-opacity="0.0" stroke="#CC4B4C" stroke-opacity="1.00" stroke-width="0.3"><path d="
M 60.00 502.00 
C 60.54 503.75 61.09 505.33 62.00 507.00
C 63.84 509.31 67.24 509.99 69.00 512.00
L 444.00 512.00
C 445.14 509.65 448.43 508.98 450.00 507.00
C 450.94 505.28 451.44 503.83 452.00 502.00
C 449.84 478.02 452.83 453.05 452.00 429.00 C 451.17 404.95 452.00 381.04 452.00 357.00
C 419.64 359.91 386.51 355.91 354.00 357.00 C 321.49 358.09 288.55 357.00 256.00 357.00 C 223.45 357.00 190.50 358.10 158.00 357.00 C 125.50 355.90 92.36 359.92 60.00 357.00
C 60.00 381.12 60.79 405.95 60.00 430.00 C 59.21 454.05 62.16 478.10 60.00 502.00
M 159.00 451.00 
C 159.00 462.33 159.00 473.67 159.00 485.00
C 154.00 485.00 149.00 485.00 144.00 485.00
C 144.00 454.00 144.00 423.00 144.00 392.00
C 164.94 391.60 194.86 389.13 201.78 414.22 C 208.69 439.31 181.57 456.69 159.00 451.00
M 220.00 485.00 
C 220.00 454.00 220.00 423.00 220.00 392.00
C 241.47 391.74 269.91 389.36 284.25 407.75 C 298.59 426.14 297.84 449.68 285.25 469.25 C 272.65 488.81 241.15 485.24 220.00 485.00
M 374.00 392.00 
C 374.00 396.00 374.00 400.00 374.00 404.00
C 360.00 404.00 346.00 404.00 332.00 404.00
C 332.00 413.67 332.00 423.33 332.00 433.00
C 344.67 433.00 357.33 433.00 370.00 433.00
C 370.00 436.33 370.00 439.67 370.00 443.00
C 357.33 443.00 344.67 443.00 332.00 443.00
C 332.66 452.27 331.11 459.52 332.00 469.00 C 332.89 478.48 332.91 486.41 322.00 485.00 C 311.09 483.59 317.01 473.34 316.00 465.00 C 314.99 456.66 316.18 447.11 316.00 439.00 C 315.82 430.89 315.48 420.51 316.00 413.00 C 316.52 405.49 312.29 392.59 321.00 392.00 C 329.71 391.42 338.20 392.29 347.00 392.00 C 355.80 391.71 365.15 392.22 374.00 392.00 Z"/>
</g>
<g fill="None" fill-opacity="0.0" stroke="#FEFCFB" stroke-opacity="1.00" stroke-width="0.3"><path d="
M 159.00 451.00 
C 181.57 456.69 208.69 439.31 201.78 414.22 C 194.86 389.13 164.94 391.60 144.00 392.00
C 144.00 423.00 144.00 454.00 144.00 485.00
C 149.00 485.00 154.00 485.00 159.00 485.00
C 159.00 473.67 159.00 462.33 159.00 451.00
M 159.00 440.00 
C 159.00 428.00 159.00 416.00 159.00 404.00
C 173.36 401.89 187.94 405.44 188.00 422.00 C 188.06 438.56 173.92 442.71 159.00 440.00 Z"/>
</g>
<g fill="None" fill-opacity="0.0" stroke="#FEFBFB" stroke-opacity="1.00" stroke-width="0.3"><path d="
M 220.00 485.00 
C 241.15 485.24 272.65 488.81 285.25 469.25 C 297.84 449.68 298.59 426.14 284.25 407.75 C 269.91 389.36 241.47 391.74 220.00 392.00
C 220.00 423.00 220.00 454.00 220.00 485.00
M 253.00 473.00 
C 249.95 473.44 237.35 476.35 235.00 473.00
C 232.33 469.18 236.21 460.85 235.00 456.00 C 233.79 451.15 235.56 444.34 235.00 439.00 C 234.44 433.66 235.28 427.62 235.00 422.00 C 234.72 416.38 235.21 409.72 235.00 404.00
C 253.38 399.96 276.62 409.94 278.78 429.22 C 280.94 448.50 275.09 472.52 253.00 473.00 Z"/>
</g>
<g fill="None" fill-opacity="0.0" stroke="#FDF7F7" stroke-opacity="1.00" stroke-width="0.3"><path d="
M 374.00 392.00 
C 365.15 392.22 355.80 391.71 347.00 392.00 C 338.20 392.29 329.71 391.42 321.00 392.00 C 312.29 392.59 316.52 405.49 316.00 413.00 C 315.48 420.51 315.82 430.89 316.00 439.00 C 316.18 447.11 314.99 456.66 316.00 465.00 C 317.01 473.34 311.09 483.59 322.00 485.00 C 332.91 486.41 332.89 478.48 332.00 469.00 C 331.11 459.52 332.66 452.27 332.00 443.00
C 344.67 443.00 357.33 443.00 370.00 443.00
C 370.00 439.67 370.00 436.33 370.00 433.00
C 357.33 433.00 344.67 433.00 332.00 433.00
C 332.00 423.33 332.00 413.67 332.00 404.00
C 346.00 404.00 360.00 404.00 374.00 404.00
C 374.00 400.00 374.00 396.00 374.00 392.00 Z"/>
</g>
<g fill="None" fill-opacity="0.0" stroke="#CC4C4D" stroke-opacity="1.00" stroke-width="0.3"><path d="
M 159.00 440.00 
C 173.92 442.71 188.06 438.56 188.00 422.00 C 187.94 405.44 173.36 401.89 159.00 404.00
C 159.00 416.00 159.00 428.00 159.00 440.00 Z"/>
</g>
<g fill="None" fill-opacity="0.0" stroke="#CC4D4E" stroke-opacity="1.00" stroke-width="0.3"><path d="
M 235.00 473.00 
C 240.99 472.83 247.01 473.23 253.00 473.00
C 275.09 472.52 280.94 448.50 278.78 429.22 C 276.62 409.94 253.38 399.96 235.00 404.00
C 235.21 409.72 234.72 416.38 235.00 422.00 C 235.28 427.62 234.44 433.66 235.00 439.00 C 235.56 444.34 233.79 451.15 235.00 456.00 C 236.21 460.85 232.33 469.18 235.00 473.00 Z"/>
</g>
<g fill="None" fill-opacity="0.0" stroke="#E39E9F" stroke-opacity="1.00" stroke-width="0.3"><path d="
M 253.00 473.00 
C 247.01 473.23 240.99 472.83 235.00 473.00
C 237.35 476.35 249.95 473.44 253.00 473.00 Z"/>
</g>
<g fill="None" fill-opacity="0.0" stroke="#E4E0DB" stroke-opacity="0.35" stroke-width="0.3"><path d="
M 63.00 509.00 
C 62.50 508.44 62.34 507.62 62.00 507.00
C 61.09 505.33 60.54 503.75 60.00 502.00
C 60.00 502.00 59.00 502.04 59.00 502.00
C 58.77 505.33 60.64 507.12 63.00 509.00 Z"/>
</g>
<g fill="None" fill-opacity="0.0" stroke="#E4E0DB" stroke-opacity="0.35" stroke-width="0.3"><path d="
M 450.00 507.00 
C 449.74 507.48 449.32 508.65 449.00 509.00
C 451.32 507.15 453.23 505.30 453.00 502.00
C 453.00 502.00 452.04 501.86 452.00 502.00
C 451.44 503.83 450.94 505.28 450.00 507.00 Z"/>
</g>
<g fill="None" fill-opacity="0.0" stroke="#E2B1AC" stroke-opacity="0.42" stroke-width="0.3"><path d="
M 63.00 509.00 
C 64.02 510.13 66.22 510.71 67.00 512.00
L 69.00 512.00
C 67.24 509.99 63.84 509.31 62.00 507.00
C 62.34 507.62 62.50 508.44 63.00 509.00 Z"/>
</g>
<g fill="None" fill-opacity="0.0" stroke="#E3B5B1" stroke-opacity="0.42" stroke-width="0.3"><path d="
M 444.00 512.00 
L 445.00 512.00
C 445.76 510.52 447.85 510.28 449.00 509.00
C 449.32 508.65 449.74 507.48 450.00 507.00
C 448.43 508.98 445.14 509.65 444.00 512.00 Z"/>
</g>
<g fill="#000000" fill-opacity="0.00" stroke="None">
<path d="
M 0.00 512.00 
L 67.00 512.00
C 66.22 510.71 64.02 510.13 63.00 509.00
C 60.64 507.12 58.77 505.33 59.00 502.00
C 56.82 477.90 59.82 453.21 59.00 429.00 C 58.18 404.79 59.00 380.24 59.00 356.00
C 59.00 318.23 58.50 280.80 59.00 243.00 C 59.50 205.20 57.69 166.81 59.00 129.00 C 60.31 91.19 56.01 52.70 59.00 15.00
C 59.49 8.82 62.34 2.65 68.00 0.00
L 0.00 0.00
L 0.00 512.00 Z"/>
</g>
<g fill="#E8E8DF" fill-opacity="1.00" stroke="None">
<path d="
M 59.00 15.00 
C 59.65 51.93 60.90 90.27 60.00 128.00 C 59.10 165.73 61.61 204.24 60.00 242.00 C 58.39 279.76 63.40 318.38 60.00 356.00
C 92.35 353.06 125.50 357.10 158.00 356.00 C 190.50 354.90 223.46 356.00 256.00 356.00 C 288.54 356.00 321.50 354.90 354.00 356.00 C 386.50 357.10 419.65 353.08 452.00 356.00
C 448.45 316.60 453.26 275.52 452.00 236.00 C 450.74 196.48 451.35 155.66 453.00 117.00
C 452.87 114.65 453.09 112.08 452.00 110.00
C 451.89 109.79 451.00 110.00 451.00 110.00
C 415.00 110.00 379.00 110.00 343.00 110.00
C 343.00 74.00 343.00 38.00 343.00 2.00
C 343.00 1.50 343.00 1.00 343.00 1.00
C 342.68 0.80 342.17 0.34 342.00 0.00
L 68.00 0.00
C 62.34 2.65 59.49 8.82 59.00 15.00
M 258.00 63.00 
C 274.13 65.91 273.06 90.45 271.01 103.01 C 268.96 115.57 262.74 134.62 270.92 146.08 C 279.10 157.53 283.43 169.01 292.25 179.75 C 301.07 190.50 307.01 205.11 321.22 202.22 C 335.43 199.34 358.25 197.25 367.75 209.25 C 377.26 221.25 362.02 239.22 348.99 240.99 C 335.96 242.76 321.97 234.21 311.75 225.25 C 301.53 216.29 282.58 227.36 270.32 230.32 C 258.06 233.29 240.67 239.54 229.31 245.31 C 217.94 251.07 216.85 270.12 208.23 279.23 C 199.60 288.34 193.63 304.49 178.98 304.98 C 164.32 305.46 154.16 284.15 161.92 272.92 C 169.69 261.70 178.52 253.00 190.75 246.75 C 202.97 240.49 217.11 234.88 220.31 220.31 C 223.50 205.73 233.04 194.57 235.32 180.32 C 237.60 166.08 248.63 152.28 247.99 137.99 C 247.35 123.71 236.03 110.26 235.07 95.93 C 234.12 81.60 238.88 59.55 258.00 63.00 Z"/>
</g>
<g fill="#000000" fill-opacity="0.00" stroke="None">
<path d="
M 343.00 1.00 
C 351.46 6.23 357.21 15.66 364.75 22.25 C 372.30 28.84 379.58 37.20 386.75 44.25 C 393.92 51.30 401.54 58.34 408.25 65.75 C 414.95 73.16 424.34 79.90 430.25 87.75 C 436.16 95.61 448.28 101.09 452.00 110.00
C 453.09 112.08 452.87 114.65 453.00 117.00
C 455.15 156.65 452.20 196.24 453.00 236.00 C 453.80 275.76 453.00 316.18 453.00 356.00
C 453.00 380.24 453.82 404.79 453.00 429.00 C 452.18 453.21 455.18 477.90 453.00 502.00
C 453.23 505.30 451.32 507.15 449.00 509.00
C 447.85 510.28 445.76 510.52 445.00 512.00
L 512.00 512.00
L 512.00 0.00
L 342.00 0.00
C 342.17 0.34 342.68 0.80 343.00 1.00 Z"/>
</g>
<g fill="#E1DED4" fill-opacity="0.21" stroke="None">
<path d="
M 343.00 2.00 
C 356.59 11.50 367.03 26.46 379.25 37.75 C 391.46 49.04 403.95 61.55 415.25 73.75 C 426.55 85.96 441.54 96.48 451.00 110.00
C 451.00 110.00 451.89 109.79 452.00 110.00
C 448.28 101.09 436.16 95.61 430.25 87.75 C 424.34 79.90 414.95 73.16 408.25 65.75 C 401.54 58.34 393.92 51.30 386.75 44.25 C 379.58 37.20 372.30 28.84 364.75 22.25 C 357.21 15.66 351.46 6.23 343.00 1.00
C 343.00 1.00 343.00 1.50 343.00 2.00 Z"/>
</g>
<g fill="#D9D7CA" fill-opacity="1.00" stroke="None">
<path d="
M 451.00 110.00 
C 441.54 96.48 426.55 85.96 415.25 73.75 C 403.95 61.55 391.46 49.04 379.25 37.75 C 367.03 26.46 356.59 11.50 343.00 2.00
C 343.00 38.00 343.00 74.00 343.00 110.00
C 379.00 110.00 415.00 110.00 451.00 110.00 Z"/>
</g>
<g fill="#E9E9DF" fill-opacity="0.56" stroke="None">
<path d="
M 59.00 356.00 
C 59.00 355.96 60.00 356.00 60.00 356.00
C 63.40 318.38 58.39 279.76 60.00 242.00 C 61.61 204.24 59.10 165.73 60.00 128.00 C 60.90 90.27 59.65 51.93 59.00 15.00
C 56.01 52.70 60.31 91.19 59.00 129.00 C 57.69 166.81 59.50 205.20 59.00 243.00 C 58.50 280.80 59.00 318.23 59.00 356.00 Z"/>
</g>
<g fill="#CC4E4E" fill-opacity="1.00" stroke="None">
<path d="
M 258.00 63.00 
C 238.88 59.55 234.12 81.60 235.07 95.93 C 236.03 110.26 247.35 123.71 247.99 137.99 C 248.63 152.28 237.60 166.08 235.32 180.32 C 233.04 194.57 223.50 205.73 220.31 220.31 C 217.11 234.88 202.97 240.49 190.75 246.75 C 178.52 253.00 169.69 261.70 161.92 272.92 C 154.16 284.15 164.32 305.46 178.98 304.98 C 193.63 304.49 199.60 288.34 208.23 279.23 C 216.85 270.12 217.94 251.07 229.31 245.31 C 240.67 239.54 258.06 233.29 270.32 230.32 C 282.58 227.36 301.53 216.29 311.75 225.25 C 321.97 234.21 335.96 242.76 348.99 240.99 C 362.02 239.22 377.26 221.25 367.75 209.25 C 358.25 197.25 335.43 199.34 321.22 202.22 C 307.01 205.11 301.07 190.50 292.25 179.75 C 283.43 169.01 279.10 157.53 270.92 146.08 C 262.74 134.62 268.96 115.57 271.01 103.01 C 273.06 90.45 274.13 65.91 258.00 63.00
M 254.00 80.00 
C 260.07 88.09 258.26 99.21 255.00 108.00
C 246.19 102.41 246.65 87.03 254.00 80.00
M 294.00 208.00 
C 274.11 211.65 255.27 219.22 236.00 225.00
C 243.39 202.65 252.65 180.78 259.00 158.00
C 269.96 174.88 280.75 192.33 294.00 208.00
M 354.00 218.00 
C 350.46 230.61 334.47 225.50 328.00 218.00
C 335.79 215.96 346.00 214.54 354.00 218.00
M 202.00 259.00 
C 196.05 269.92 189.19 280.62 180.00 289.00
C 170.08 285.81 177.46 275.42 183.25 271.25 C 189.04 267.08 195.24 261.44 202.00 259.00 Z"/>
</g>
<g fill="#E8E5DC" fill-opacity="1.00" stroke="None">
<path d="
M 254.00 80.00 
C 246.65 87.03 246.19 102.41 255.00 108.00
C 258.26 99.21 260.07 88.09 254.00 80.00 Z"/>
</g>
<g fill="#E9E9DF" fill-opacity="0.56" stroke="None">
<path d="
M 452.00 356.00 
C 452.25 355.75 453.00 356.00 453.00 356.00
C 453.00 316.18 453.80 275.76 453.00 236.00 C 452.20 196.24 455.15 156.65 453.00 117.00
C 451.35 155.66 450.74 196.48 452.00 236.00 C 453.26 275.52 448.45 316.60 452.00 356.00 Z"/>
</g>
<g fill="#E8E7DE" fill-opacity="1.00" stroke="None">
<path d="
M 294.00 208.00 
C 280.75 192.33 269.96 174.88 259.00 158.00
C 252.65 180.78 243.39 202.65 236.00 225.00
C 255.27 219.22 274.11 211.65 294.00 208.00 Z"/>
</g>
<g fill="#E7E1D8" fill-opacity="1.00" stroke="None">
<path d="
M 354.00 218.00 
C 346.00 214.54 335.79 215.96 328.00 218.00
C 334.47 225.50 350.46 230.61 354.00 218.00 Z"/>
</g>
<g fill="#E8E4DB" fill-opacity="1.00" stroke="None">
<path d="
M 202.00 259.00 
C 195.24 261.44 189.04 267.08 183.25 271.25 C 177.46 275.42 170.08 285.81 180.00 289.00
C 189.19 280.62 196.05 269.92 202.00 259.00 Z"/>
</g>
<g fill="#D57C79" fill-opacity="0.81" stroke="None">
<path d="
M 59.00 502.00 
C 59.00 502.04 60.00 502.00 60.00 502.00
C 62.16 478.10 59.21 454.05 60.00 430.00 C 60.79 405.95 60.00 381.12 60.00 357.00
C 60.00 356.50 60.00 356.00 60.00 356.00
C 60.00 356.00 59.00 355.96 59.00 356.00
C 59.00 380.24 58.18 404.79 59.00 429.00 C 59.82 453.21 56.82 477.90 59.00 502.00 Z"/>
</g>
<g fill="#DCA49F" fill-opacity="1.00" stroke="None">
<path d="
M 60.00 357.00 
C 92.36 359.92 125.50 355.90 158.00 357.00 C 190.50 358.10 223.45 357.00 256.00 357.00 C 288.55 357.00 321.49 358.09 354.00 357.00 C 386.51 355.91 419.64 359.91 452.00 357.00
C 452.00 356.50 452.00 356.00 452.00 356.00
C 419.65 353.08 386.50 357.10 354.00 356.00 C 321.50 354.90 288.54 356.00 256.00 356.00 C 223.46 356.00 190.50 354.90 158.00 356.00 C 125.50 357.10 92.35 353.06 60.00 356.00
C 60.00 356.00 60.00 356.50 60.00 357.00 Z"/>
</g>
<g fill="#D57C79" fill-opacity="0.81" stroke="None">
<path d="
M 452.00 357.00 
C 452.00 381.04 451.17 404.95 452.00 429.00 C 452.83 453.05 449.84 478.02 452.00 502.00
C 452.04 501.86 453.00 502.00 453.00 502.00
C 455.18 477.90 452.18 453.21 453.00 429.00 C 453.82 404.79 453.00 380.24 453.00 356.00
C 453.00 356.00 452.25 355.75 452.00 356.00
C 452.00 356.00 452.00 356.50 452.00 357.00 Z"/>
</g>
<g fill="#CC4B4C" fill-opacity="1.00" stroke="None">
<path d="
M 60.00 502.00 
C 60.54 503.75 61.09 505.33 62.00 507.00
C 63.84 509.31 67.24 509.99 69.00 512.00
L 444.00 512.00
C 445.14 509.65 448.43 508.98 450.00 507.00
C 450.94 505.28 451.44 503.83 452.00 502.00
C 449.84 478.02 452.83 453.05 452.00 429.00 C 451.17 404.95 452.00 381.04 452.00 357.00
C 419.64 359.91 386.51 355.91 354.00 357.00 C 321.49 358.09 288.55 357.00 256.00 357.00 C 223.45 357.00 190.50 358.10 158.00 357.00 C 125.50 355.90 92.36 359.92 60.00 357.00
C 60.00 381.12 60.79 405.95 60.00 430.00 C 59.21 454.05 62.16 478.10 60.00 502.00
M 159.00 451.00 
C 159.00 462.33 159.00 473.67 159.00 485.00
C 154.00 485.00 149.00 485.00 144.00 485.00
C 144.00 454.00 144.00 423.00 144.00 392.00
C 164.94 391.60 194.86 389.13 201.78 414.22 C 208.69 439.31 181.57 456.69 159.00 451.00
M 220.00 485.00 
C 220.00 454.00 220.00 423.00 220.00 392.00
C 241.47 391.74 269.91 389.36 284.25 407.75 C 298.59 426.14 297.84 449.68 285.25 469.25 C 272.65 488.81 241.15 485.24 220.00 485.00
M 374.00 392.00 
C 374.00 396.00 374.00 400.00 374.00 404.00
C 360.00 404.00 346.00 404.00 332.00 404.00
C 332.00 413.67 332.00 423.33 332.00 433.00
C 344.67 433.00 357.33 433.00 370.00 433.00
C 370.00 436.33 370.00 439.67 370.00 443.00
C 357.33 443.00 344.67 443.00 332.00 443.00
C 332.66 452.27 331.11 459.52 332.00 469.00 C 332.89 478.48 332.91 486.41 322.00 485.00 C 311.09 483.59 317.01 473.34 316.00 465.00 C 314.99 456.66 316.18 447.11 316.00 439.00 C 315.82 430.89 315.48 420.51 316.00 413.00 C 316.52 405.49 312.29 392.59 321.00 392.00 C 329.71 391.42 338.20 392.29 347.00 392.00 C 355.80 391.71 365.15 392.22 374.00 392.00 Z"/>
</g>
<g fill="#FEFCFB" fill-opacity="1.00" stroke="None">
<path d="
M 159.00 451.00 
C 181.57 456.69 208.69 439.31 201.78 414.22 C 194.86 389.13 164.94 391.60 144.00 392.00
C 144.00 423.00 144.00 454.00 144.00 485.00
C 149.00 485.00 154.00 485.00 159.00 485.00
C 159.00 473.67 159.00 462.33 159.00 451.00
M 159.00 440.00 
C 159.00 428.00 159.00 416.00 159.00 404.00
C 173.36 401.89 187.94 405.44 188.00 422.00 C 188.06 438.56 173.92 442.71 159.00 440.00 Z"/>
</g>
<g fill="#FEFBFB" fill-opacity="1.00" stroke="None">
<path d="
M 220.00 485.00 
C 241.15 485.24 272.65 488.81 285.25 469.25 C 297.84 449.68 298.59 426.14 284.25 407.75 C 269.91 389.36 241.47 391.74 220.00 392.00
C 220.00 423.00 220.00 454.00 220.00 485.00
M 253.00 473.00 
C 249.95 473.44 237.35 476.35 235.00 473.00
C 232.33 469.18 236.21 460.85 235.00 456.00 C 233.79 451.15 235.56 444.34 235.00 439.00 C 234.44 433.66 235.28 427.62 235.00 422.00 C 234.72 416.38 235.21 409.72 235.00 404.00
C 253.38 399.96 276.62 409.94 278.78 429.22 C 280.94 448.50 275.09 472.52 253.00 473.00 Z"/>
</g>
<g fill="#FDF7F7" fill-opacity="1.00" stroke="None">
<path d="
M 374.00 392.00 
C 365.15 392.22 355.80 391.71 347.00 392.00 C 338.20 392.29 329.71 391.42 321.00 392.00 C 312.29 392.59 316.52 405.49 316.00 413.00 C 315.48 420.51 315.82 430.89 316.00 439.00 C 316.18 447.11 314.99 456.66 316.00 465.00 C 317.01 473.34 311.09 483.59 322.00 485.00 C 332.91 486.41 332.89 478.48 332.00 469.00 C 331.11 459.52 332.66 452.27 332.00 443.00
C 344.67 443.00 357.33 443.00 370.00 443.00
C 370.00 439.67 370.00 436.33 370.00 433.00
C 357.33 433.00 344.67 433.00 332.00 433.00
C 332.00 423.33 332.00 413.67 332.00 404.00
C 346.00 404.00 360.00 404.00 374.00 404.00
C 374.00 400.00 374.00 396.00 374.00 392.00 Z"/>
</g>
<g fill="#CC4C4D" fill-opacity="1.00" stroke="None">
<path d="
M 159.00 440.00 
C 173.92 442.71 188.06 438.56 188.00 422.00 C 187.94 405.44 173.36 401.89 159.00 404.00
C 159.00 416.00 159.00 428.00 159.00 440.00 Z"/>
</g>
<g fill="#CC4D4E" fill-opacity="1.00" stroke="None">
<path d="
M 235.00 473.00 
C 240.99 472.83 247.01 473.23 253.00 473.00
C 275.09 472.52 280.94 448.50 278.78 429.22 C 276.62 409.94 253.38 399.96 235.00 404.00
C 235.21 409.72 234.72 416.38 235.00 422.00 C 235.28 427.62 234.44 433.66 235.00 439.00 C 235.56 444.34 233.79 451.15 235.00 456.00 C 236.21 460.85 232.33 469.18 235.00 473.00 Z"/>
</g>
<g fill="#E39E9F" fill-opacity="1.00" stroke="None">
<path d="
M 253.00 473.00 
C 247.01 473.23 240.99 472.83 235.00 473.00
C 237.35 476.35 249.95 473.44 253.00 473.00 Z"/>
</g>
<g fill="#E4E0DB" fill-opacity="0.35" stroke="None">
<path d="
M 63.00 509.00 
C 62.50 508.44 62.34 507.62 62.00 507.00
C 61.09 505.33 60.54 503.75 60.00 502.00
C 60.00 502.00 59.00 502.04 59.00 502.00
C 58.77 505.33 60.64 507.12 63.00 509.00 Z"/>
</g>
<g fill="#E4E0DB" fill-opacity="0.35" stroke="None">
<path d="
M 450.00 507.00 
C 449.74 507.48 449.32 508.65 449.00 509.00
C 451.32 507.15 453.23 505.30 453.00 502.00
C 453.00 502.00 452.04 501.86 452.00 502.00
C 451.44 503.83 450.94 505.28 450.00 507.00 Z"/>
</g>
<g fill="#E2B1AC" fill-opacity="0.42" stroke="None">
<path d="
M 63.00 509.00 
C 64.02 510.13 66.22 510.71 67.00 512.00
L 69.00 512.00
C 67.24 509.99 63.84 509.31 62.00 507.00
C 62.34 507.62 62.50 508.44 63.00 509.00 Z"/>
</g>
<g fill="#E3B5B1" fill-opacity="0.42" stroke="None">
<path d="
M 444.00 512.00 
L 445.00 512.00
C 445.76 510.52 447.85 510.28 449.00 509.00
C 449.32 508.65 449.74 507.48 450.00 507.00
C 448.43 508.98 445.14 509.65 444.00 512.00 Z"/>
</g>
</svg>